<svg xmlns="http://www.w3.org/2000/svg" version="1.1" xmlns:xlink="http://www.w3.org/1999/xlink" xmlns:svgjs="http://svgjs.dev/svgjs" width="2000" height="2250" viewBox="0 0 2000 2250"><g transform="matrix(1,0,0,1,0,0)"><svg viewBox="0 0 320 360" data-background-color="#ee3e38" preserveAspectRatio="xMidYMid meet" height="2250" width="2000" xmlns="http://www.w3.org/2000/svg" xmlns:xlink="http://www.w3.org/1999/xlink"><g id="tight-bounds" transform="matrix(1,0,0,1,0,0)"><svg viewBox="0 0 320 360" height="360" width="320"><g><svg></svg></g><g><svg viewBox="0 0 320 360" height="360" width="320"><g><path d="M39.474 120.804l2.852-5.236c22.696-41.686 66.871-69.977 117.674-69.972 50.817 0 95.006 28.305 117.697 70.005l2.852 5.241 8.173-31.337 31.03 7.961-2.654-4.792c-30.586-55.251-89.468-92.674-157.098-92.674-67.631 0-126.508 37.423-157.103 92.674l-2.654 4.787 31.063-7.956zM160 4.721c63.839 0 119.567 34.288 150.073 85.389l-24.731-6.341-6.417 24.608c-24.217-40.411-68.381-67.503-118.925-67.503-50.525 0-94.68 27.078-118.897 67.465l-6.412-24.575-24.764 6.341c30.506-51.101 86.238-85.384 150.073-85.384zM280.526 239.191l-2.852 5.236c-22.696 41.691-66.871 69.977-117.674 69.977-50.817 0-95.006-28.301-117.697-70.005l-2.852-5.236-8.173 31.332-31.035-7.961 2.654 4.792c30.591 55.246 89.468 92.674 157.103 92.674 67.631 0 126.513-37.427 157.103-92.674l2.654-4.787-31.063 7.956zM160 355.279c-63.839 0-119.567-34.288-150.073-85.389l24.727 6.346 6.421-24.609c24.217 40.402 68.381 67.499 118.925 67.499 50.529 0 94.68-27.078 118.901-67.47l6.408 24.575 24.764-6.341c-30.506 51.096-86.233 85.388-150.073 85.388z" fill="#ffffff" fill-rule="nonzero" stroke="none" stroke-width="1" stroke-linecap="butt" stroke-linejoin="miter" stroke-miterlimit="10" stroke-dasharray="" stroke-dashoffset="0" font-family="none" font-weight="none" font-size="none" text-anchor="none" style="mix-blend-mode: normal" data-fill-palette-color="tertiary"></path></g><g transform="matrix(1,0,0,1,103.3125,90)"><svg viewBox="0 0 113.375 180" height="180" width="113.375"><g><svg viewBox="0 0 113.375 180" height="180" width="113.375"><g><svg viewBox="0 0 113.375 180" height="180" width="113.375"><g id="textblocktransform"><svg viewBox="0 0 113.375 180" height="180" width="113.375" id="textblock"><g><svg viewBox="0 0 113.375 180" height="180" width="113.375"><g transform="matrix(1,0,0,1,0,0)"><svg width="113.375" viewBox="1.95 -34.35 22.150000000000002 35.160000000000004" height="180" data-palette-color="#ffffff"><path d="M24.1-9.4L24.1-9.4Q24.1-6.88 22.74-4.54 21.39-2.2 18.47-0.7 15.55 0.81 10.84 0.81L10.84 0.81Q8.15 0.81 6.15 0.34 4.15-0.12 3.05-0.59 1.95-1.05 1.95-1.05L1.95-1.05 1.95-9.91 5.1-9.91 5.76-4.25Q5.81-3.96 6.08-3.61 6.35-3.27 6.59-3.15L6.59-3.15Q6.71-3.13 8.02-2.56 9.33-2 11.65-2L11.65-2Q14.84-2 16.92-3.56 18.99-5.13 18.99-7.91L18.99-7.91Q18.99-9.42 18.15-10.56 17.31-11.69 15.97-12.57 14.62-13.45 13.1-14.17 11.57-14.89 10.21-15.55L10.21-15.55Q8.15-16.53 6.4-17.64 4.64-18.75 3.56-20.39 2.49-22.02 2.49-24.56L2.49-24.56Q2.49-27.54 4-29.74 5.52-31.93 8.13-33.14 10.74-34.35 14.04-34.35L14.04-34.35Q16.72-34.35 18.77-33.83 20.83-33.3 22.41-32.79L22.41-32.79 22.85-32.64 22.85-24.85 20-24.85 19.24-29.64Q19.19-29.98 18.93-30.14 18.68-30.3 18.46-30.52L18.46-30.52Q18.26-30.66 17.25-31.15 16.24-31.64 14.11-31.64L14.11-31.64Q11.11-31.64 9.38-29.97 7.64-28.3 7.64-25.76L7.64-25.76Q7.64-23.46 9.44-21.95 11.23-20.43 14.6-19.14L14.6-19.14Q19.14-17.43 21.62-15.3 24.1-13.16 24.1-9.4Z" opacity="1" transform="matrix(1,0,0,1,0,0)" fill="#ffffff" class="wordmark-text-0" data-fill-palette-color="primary" id="text-0"></path></svg></g></svg></g></svg></g></svg></g><g></g></svg></g></svg></g></svg></g><defs></defs></svg><rect width="320" height="360" fill="none" stroke="none" visibility="hidden"></rect></g></svg></g></svg>